ply
format ascii 1.0
comment Created by Blender 2.70 (sub 0) - www.blender.org, source file: 'shell.blend'
element vertex 20
property float x
property float y
property float z
element face 36
property list uchar uint vertex_indices
end_header
0.037768 -0.780885 0.566321
-0.285424 0.617430 -0.852003
1.950450 -1.243391 -0.368824
1.330404 2.636345 -2.641723
1.665061 2.586375 -0.052416
1.828423 2.965948 -1.829585
2.954699 -0.408906 1.432087
2.463980 1.223561 -0.823335
2.772393 -1.525238 2.674012
2.632111 -2.585539 2.495435
2.646835 -2.413024 1.108337
2.169932 0.892420 2.349588
0.053834 1.145997 0.698759
1.887361 -0.012509 -1.889991
2.733496 -1.442389 -0.424144
0.926512 2.466768 -3.417405
1.596990 2.403280 2.016602
2.914147 -0.646677 2.834475
2.860438 -0.780010 -0.258113
3.000000 0.000158 -0.000312
3 0 1 2
3 3 4 5
3 6 7 4
3 8 9 10
3 7 3 5
3 11 12 8
3 9 0 10
3 2 13 14
3 1 15 13
3 11 16 12
3 17 11 8
3 8 0 9
3 18 10 14
3 6 18 19
3 17 8 6
3 6 8 18
3 11 17 6
3 16 11 4
3 4 7 5
3 6 19 7
3 12 16 4
3 15 1 3
3 3 1 4
3 18 7 19
3 14 13 18
3 13 15 3
3 18 13 3
3 10 2 14
3 10 0 2
3 12 1 0
3 1 12 4
3 11 6 4
3 1 13 2
3 12 0 8
3 7 18 3
3 8 10 18
