ply
format ascii 1.0
comment Created by Blender 2.70 (sub 0) - www.blender.org, source file: 'shell.blend'
element vertex 20
property float x
property float y
property float z
element face 36
property list uchar uint vertex_indices
end_header
1.279221 -26.449209 19.181770
-9.667554 20.912861 -28.858030
66.063354 -42.114677 -12.492360
45.061878 89.295189 -89.477318
56.396973 87.602646 -1.775380
61.930195 100.459091 -61.969559
100.078072 -13.849998 48.505962
83.457047 41.443005 -27.887032
93.903252 -51.661053 90.570976
89.151772 -87.574348 84.522438
89.650475 -81.731125 37.540283
73.497383 30.226986 79.582489
1.823401 38.815861 23.667538
63.926476 -0.423678 -64.015541
92.585747 -48.854885 -14.366099
31.381708 83.551460 -115.750320
54.091370 81.401070 68.303970
98.704567 -21.903490 96.005989
96.885376 -26.419580 -8.742484
101.612473 0.005346 -0.010575
3 0 1 2
3 3 4 5
3 6 7 4
3 8 9 10
3 7 3 5
3 11 12 8
3 9 0 10
3 2 13 14
3 1 15 13
3 11 16 12
3 17 11 8
3 8 0 9
3 18 10 14
3 6 18 19
3 17 8 6
3 6 8 18
3 11 17 6
3 16 11 4
3 4 7 5
3 6 19 7
3 12 16 4
3 15 1 3
3 3 1 4
3 18 7 19
3 14 13 18
3 13 15 3
3 18 13 3
3 10 2 14
3 10 0 2
3 12 1 0
3 1 12 4
3 11 6 4
3 1 13 2
3 12 0 8
3 7 18 3
3 8 10 18
