ply
format ascii 1.0
comment Created by Blender 2.75 (sub 0) - www.blender.org, source file: 'shell.blend'
element vertex 16
property float x
property float y
property float z
element face 28
property list uchar uint vertex_indices
end_header
66.063354 -42.114677 -12.492360
1.279221 -26.449209 19.181770
63.926476 -0.423678 -64.015541
93.903252 -51.661053 90.570976
89.151772 -87.574348 84.522438
89.650475 -81.731125 37.540283
92.585747 -48.854885 -14.366099
-9.667554 20.912861 -28.858030
31.381708 83.551460 -115.750320
1.823401 38.815861 23.667538
54.091370 81.401070 68.303970
96.885376 -26.419580 -8.742484
100.078072 -13.849998 48.505962
101.612473 0.005346 -0.010575
98.704567 -21.903490 96.005989
61.930195 100.459091 -61.969559
3 0 1 2
3 3 4 5
3 4 1 5
3 0 2 6
3 7 8 2
3 9 3 10
3 3 1 4
3 11 5 6
3 12 11 13
3 14 3 12
3 12 3 11
3 14 10 3
3 14 10 15
3 13 11 2
3 6 2 11
3 15 13 2
3 5 0 6
3 5 1 0
3 9 7 1
3 7 2 1
3 9 1 3
3 2 8 15
3 3 5 11
3 13 14 15
3 7 9 8
3 9 10 8
3 15 10 8
3 13 14 12
